<?xml version="1.0" standalone="no"?><!DOCTYPE svg PUBLIC "-//W3C//DTD SVG 1.1//EN" "http://www.w3.org/Graphics/SVG/1.1/DTD/svg11.dtd"><svg t="1612604184945" class="icon" viewBox="0 0 1024 1024" version="1.1" xmlns="http://www.w3.org/2000/svg" p-id="2988" xmlns:xlink="http://www.w3.org/1999/xlink" width="200" height="200"><defs><style type="text/css"></style></defs><path d="M973.013333 563.968c-13.610667 0-25.514667-5.12-35.712-15.36L512.042667 122.709333 86.784 548.693333c-20.394667 20.437333-52.736 20.437333-71.424 0-20.437333-20.48-20.437333-52.821333 0-71.594666L476.330667 15.36c20.394667-20.437333 52.736-20.437333 71.424 0l460.970666 461.738667c20.437333 20.48 20.437333 52.821333 0 71.594666-10.197333 10.24-23.808 15.317333-35.712 15.317334z" fill="#d81e06" p-id="2989"></path><path d="M512.042667 1024c-28.928 0-51.029333-22.186667-51.029334-51.114667V51.114667C461.013333 22.144 483.114667 0 512.042667 0c28.928 0 51.029333 22.186667 51.029333 51.114667v921.770666A51.2 51.2 0 0 1 512.042667 1024z" fill="#d81e06" p-id="2990"></path></svg>