<?xml version="1.0" standalone="no"?><!DOCTYPE svg PUBLIC "-//W3C//DTD SVG 1.1//EN" "http://www.w3.org/Graphics/SVG/1.1/DTD/svg11.dtd"><svg t="1613141292597" class="icon" viewBox="0 0 1024 1024" version="1.1" xmlns="http://www.w3.org/2000/svg" p-id="4016" xmlns:xlink="http://www.w3.org/1999/xlink" width="200" height="200"><defs><style type="text/css"></style></defs><path d="M316.16 910.7968c-20.0704 0-40.0384-6.2976-57.088-18.688-30.1568-21.9136-45.0048-58.368-38.7072-95.1296l24.6784-143.872c2.56-14.9504-2.4064-30.208-13.2608-40.7552L127.232 510.464c-26.7264-26.0096-36.1472-64.256-24.6272-99.7376s41.6256-60.8256 78.5408-66.2016l144.4352-20.992a46.21824 46.21824 0 0 0 34.7136-25.1904L424.96 167.3728c16.4864-33.4336 49.92-54.2208 87.2448-54.2208 37.3248 0 70.7072 20.7872 87.2448 54.2208l64.6144 130.9184a45.89056 45.89056 0 0 0 34.7136 25.1904l144.4352 20.992c36.9152 5.376 67.0208 30.72 78.5408 66.2016s2.0992 73.6768-24.6272 99.7376l-104.5504 101.888a46.1568 46.1568 0 0 0-13.2608 40.8064l24.6784 143.872c6.2976 36.7616-8.4992 73.216-38.7072 95.1296-30.1568 21.9136-69.4272 24.7808-102.4512 7.424l-129.1776-67.9424a46.07488 46.07488 0 0 0-42.9056 0l-129.2288 67.9424a97.536 97.536 0 0 1-45.3632 11.264z m196.0448-135.7312c15.5648 0 31.0784 3.7376 45.2608 11.1616l129.1776 67.9424c15.872 8.3456 34.048 7.0656 48.5376-3.4816s21.3504-27.392 18.3296-45.056l-24.6784-143.872c-5.4272-31.5392 5.0176-63.744 27.9552-86.1184l104.5504-101.888c12.8512-12.544 17.2032-30.1568 11.6736-47.2576-5.5296-17.0496-19.456-28.7744-37.1712-31.3856l-144.4352-20.992a97.28 97.28 0 0 1-73.2672-53.1968l-64.6144-130.9184c-7.936-16.0768-23.3984-25.7024-41.3184-25.7024s-33.3824 9.6256-41.3184 25.7024L406.272 320.9216c-14.1824 28.7232-41.5744 48.64-73.2672 53.1968l-144.4352 20.992c-17.7664 2.56-31.6416 14.2848-37.2224 31.3856-5.5296 17.0496-1.1776 34.7136 11.6736 47.2576l104.5504 101.888a97.17248 97.17248 0 0 1 27.9552 86.1184l-24.6784 143.872c-3.0208 17.664 3.84 34.5088 18.3296 45.056 14.4896 10.5472 32.6656 11.8784 48.5376 3.4816l129.2288-67.9424c14.1312-7.424 29.696-11.1616 45.2608-11.1616z" fill="#888888" p-id="4017"></path><path d="M512.2048 732.672c-56.5248 0-113.0496-21.504-156.1088-64.5632a25.61536 25.61536 0 0 1 0-36.1984 25.61536 25.61536 0 0 1 36.1984 0c66.0992 66.0992 173.6704 66.0992 239.7696 0a25.61536 25.61536 0 0 1 36.1984 0 25.61536 25.61536 0 0 1 0 36.1984c-43.008 43.008-99.5328 64.5632-156.0576 64.5632z" fill="#888888" p-id="4018"></path></svg>