<?xml version="1.0" standalone="no"?><!DOCTYPE svg PUBLIC "-//W3C//DTD SVG 1.1//EN" "http://www.w3.org/Graphics/SVG/1.1/DTD/svg11.dtd"><svg t="1611732087356" class="icon" viewBox="0 0 1024 1024" version="1.1" xmlns="http://www.w3.org/2000/svg" p-id="5626" xmlns:xlink="http://www.w3.org/1999/xlink" width="200" height="200"><defs><style type="text/css"></style></defs><path d="M15.515152 31.030303h992.969696v992.969697H15.515152z" fill="#FFFFFF" fill-opacity=".01" p-id="5627"></path><path d="M548.119273 135.912727l4.220121 3.351273 383.00703 331.713939a32.581818 32.581818 0 0 1 3.723637 45.180122 30.906182 30.906182 0 0 1-21.721213 11.264V527.515152h-806.787878a30.999273 30.999273 0 0 1-25.6-11.357091 32.643879 32.643879 0 0 1 0.868848-42.387394l2.823758-2.792728L471.660606 139.29503a61.315879 61.315879 0 0 1 76.458667-3.351272zM853.333333 527.515152v341.333333a62.060606 62.060606 0 0 1-62.060606 62.060606H232.727273a62.060606 62.060606 0 0 1-62.060606-62.060606V527.515152h682.666666z m-310.30303 93.090909h-62.060606a62.060606 62.060606 0 0 0-62.060606 62.060606v186.181818h186.181818v-186.181818a62.060606 62.060606 0 0 0-62.060606-62.060606z" fill="#000000" p-id="5628"></path></svg>