<?xml version="1.0" standalone="no"?><!DOCTYPE svg PUBLIC "-//W3C//DTD SVG 1.1//EN" "http://www.w3.org/Graphics/SVG/1.1/DTD/svg11.dtd"><svg t="1612427137248" class="icon" viewBox="0 0 1024 1024" version="1.1" xmlns="http://www.w3.org/2000/svg" p-id="2502" xmlns:xlink="http://www.w3.org/1999/xlink" width="200" height="200"><defs><style type="text/css"></style></defs><path d="M512 85.333333a426.666667 426.666667 0 1 0 426.666667 426.666667A427.136 427.136 0 0 0 512 85.333333z m0 810.666667a384 384 0 1 1 384-384 384.426667 384.426667 0 0 1-384 384z" fill="#646464" p-id="2503"></path><path d="M592.064 348.629333a21.269333 21.269333 0 0 0-30.101333-2.026666l-170.666667 149.333333a21.333333 21.333333 0 0 0 0 32.128l170.666667 149.333333a21.333333 21.333333 0 1 0 28.074666-32.128L437.717333 512l152.32-133.269333a21.333333 21.333333 0 0 0 2.026667-30.101334z" fill="#646464" p-id="2504"></path></svg>