<?xml version="1.0" standalone="no"?><!DOCTYPE svg PUBLIC "-//W3C//DTD SVG 1.1//EN" "http://www.w3.org/Graphics/SVG/1.1/DTD/svg11.dtd"><svg t="1613225889847" class="icon" viewBox="0 0 1024 1024" version="1.1" xmlns="http://www.w3.org/2000/svg" p-id="2700" xmlns:xlink="http://www.w3.org/1999/xlink" width="200" height="200"><defs><style type="text/css"></style></defs><path d="M243.39 534.85l251.99 187.91c11.07 8.25 13.35 23.92 5.1 34.99s-23.92 13.35-34.99 5.1L213.5 574.94c-11.07-8.25-13.35-23.92-5.1-34.99 8.26-11.07 23.92-13.35 34.99-5.1z" fill="#ffffff" p-id="2701"></path><path d="M808.33 265.33c11.4 7.79 14.32 23.35 6.52 34.75L502.33 757.1c-7.79 11.4-23.35 14.32-34.75 6.52-11.4-7.79-14.32-23.35-6.52-34.75l312.53-457.01c7.79-11.4 23.34-14.32 34.74-6.53z" fill="#ffffff" p-id="2702"></path></svg>